<svg xmlns="http://www.w3.org/2000/svg" xmlns:xlink="http://www.w3.org/1999/xlink" width="500" zoomAndPan="magnify" viewBox="0 0 375 374.999991" height="500" preserveAspectRatio="xMidYMid meet" version="1.0"><defs><g/><clipPath id="60aa8cfdc3"><path d="M 57.601562 216.46875 L 317.390625 216.46875 L 317.390625 220.21875 L 57.601562 220.21875 Z M 57.601562 216.46875 " clip-rule="nonzero"/></clipPath><clipPath id="179d53a143"><path d="M 317.390625 218.34375 C 317.390625 219.378906 316.550781 220.21875 315.515625 220.21875 L 59.476562 220.21875 C 58.441406 220.21875 57.601562 219.378906 57.601562 218.34375 C 57.601562 217.308594 58.441406 216.46875 59.476562 216.46875 L 315.515625 216.46875 C 316.550781 216.46875 317.390625 217.308594 317.390625 218.34375 Z M 317.390625 218.34375 " clip-rule="nonzero"/></clipPath></defs><rect x="-37.5" width="450" fill="#ffffff" y="-37.499999" height="449.999989" fill-opacity="1"/><rect x="-37.5" width="450" fill="#ffffff" y="-37.499999" height="449.999989" fill-opacity="1"/><g fill="#d40000" fill-opacity="1"><g transform="translate(44.537533, 206.682703)"><g><path d="M 17.859375 -38.828125 C 21.035156 -38.828125 23.875 -38.425781 26.375 -37.625 C 28.875 -36.832031 30.832031 -35.585938 32.25 -33.890625 C 33.675781 -32.191406 34.390625 -29.972656 34.390625 -27.234375 C 34.390625 -25.972656 34.148438 -24.742188 33.671875 -23.546875 C 33.191406 -22.347656 32.429688 -21.320312 31.390625 -20.46875 C 33.203125 -19.65625 34.535156 -18.460938 35.390625 -16.890625 C 36.242188 -15.316406 36.671875 -13.644531 36.671875 -11.875 C 36.671875 -9.019531 35.945312 -6.710938 34.5 -4.953125 C 33.0625 -3.203125 31.035156 -1.9375 28.421875 -1.15625 C 25.816406 -0.382812 22.757812 0 19.25 0 L 0.5625 0 L 0.5625 -38.828125 Z M 19.03125 -24.84375 C 19.914062 -24.84375 20.570312 -25.054688 21 -25.484375 C 21.425781 -25.910156 21.640625 -26.390625 21.640625 -26.921875 C 21.640625 -27.460938 21.425781 -27.945312 21 -28.375 C 20.570312 -28.800781 19.914062 -29.015625 19.03125 -29.015625 L 14.984375 -29.015625 L 14.984375 -10.59375 L 19.53125 -10.59375 C 20.445312 -10.59375 21.128906 -10.8125 21.578125 -11.25 C 22.023438 -11.695312 22.25 -12.207031 22.25 -12.78125 C 22.25 -13.351562 22.015625 -13.863281 21.546875 -14.3125 C 21.085938 -14.757812 20.394531 -14.984375 19.46875 -14.984375 L 15.921875 -14.984375 L 15.921875 -24.84375 Z M 19.03125 -24.84375 "/></g></g></g><g fill="#d40000" fill-opacity="1"><g transform="translate(83.138077, 206.682703)"><g><path d="M 21.796875 1.109375 C 18.878906 1.109375 16.132812 0.570312 13.5625 -0.5 C 10.988281 -1.570312 8.734375 -3.039062 6.796875 -4.90625 C 4.859375 -6.769531 3.332031 -8.953125 2.21875 -11.453125 C 1.113281 -13.953125 0.5625 -16.609375 0.5625 -19.421875 C 0.5625 -22.265625 1.113281 -24.925781 2.21875 -27.40625 C 3.332031 -29.882812 4.859375 -32.054688 6.796875 -33.921875 C 8.734375 -35.785156 10.988281 -37.253906 13.5625 -38.328125 C 16.132812 -39.398438 18.878906 -39.9375 21.796875 -39.9375 C 24.722656 -39.9375 27.46875 -39.398438 30.03125 -38.328125 C 32.601562 -37.253906 34.859375 -35.785156 36.796875 -33.921875 C 38.742188 -32.054688 40.257812 -29.882812 41.34375 -27.40625 C 42.4375 -24.925781 42.984375 -22.265625 42.984375 -19.421875 C 42.984375 -16.609375 42.4375 -13.953125 41.34375 -11.453125 C 40.257812 -8.953125 38.742188 -6.769531 36.796875 -4.90625 C 34.859375 -3.039062 32.601562 -1.570312 30.03125 -0.5 C 27.46875 0.570312 24.722656 1.109375 21.796875 1.109375 Z M 16.25 -19.421875 C 16.25 -17.898438 16.785156 -16.601562 17.859375 -15.53125 C 18.929688 -14.457031 20.226562 -13.921875 21.75 -13.921875 C 23.257812 -13.921875 24.5625 -14.457031 25.65625 -15.53125 C 26.75 -16.601562 27.296875 -17.898438 27.296875 -19.421875 C 27.296875 -20.929688 26.75 -22.234375 25.65625 -23.328125 C 24.5625 -24.421875 23.257812 -24.96875 21.75 -24.96875 C 20.226562 -24.96875 18.929688 -24.421875 17.859375 -23.328125 C 16.785156 -22.234375 16.25 -20.929688 16.25 -19.421875 Z M 16.25 -19.421875 "/></g></g></g><g fill="#d40000" fill-opacity="1"><g transform="translate(128.227469, 206.682703)"><g><path d="M 0.609375 -38.828125 L 15.03125 -38.828125 L 15.03125 -14.03125 L 29.234375 -14.03125 L 29.234375 0 L 0.609375 0 Z M 0.609375 -38.828125 "/></g></g></g><g fill="#d40000" fill-opacity="1"><g transform="translate(159.451822, 206.682703)"><g><path d="M 0.5625 0 L 0.5625 -38.828125 L 18.96875 -38.828125 C 22.113281 -38.828125 24.859375 -38.28125 27.203125 -37.1875 C 29.554688 -36.101562 31.515625 -34.632812 33.078125 -32.78125 C 34.648438 -30.9375 35.828125 -28.859375 36.609375 -26.546875 C 37.390625 -24.234375 37.78125 -21.851562 37.78125 -19.40625 C 37.78125 -16.96875 37.390625 -14.59375 36.609375 -12.28125 C 35.828125 -9.96875 34.648438 -7.882812 33.078125 -6.03125 C 31.515625 -4.1875 29.554688 -2.71875 27.203125 -1.625 C 24.859375 -0.539062 22.113281 0 18.96875 0 Z M 19.25 -15.03125 C 20.25 -15.03125 21.039062 -15.332031 21.625 -15.9375 C 22.21875 -16.550781 22.613281 -17.289062 22.8125 -18.15625 C 23.019531 -19.03125 23.019531 -19.910156 22.8125 -20.796875 C 22.613281 -21.679688 22.21875 -22.429688 21.625 -23.046875 C 21.039062 -23.660156 20.25 -23.96875 19.25 -23.96875 L 14.921875 -23.96875 L 14.921875 -15.03125 Z M 19.25 -15.03125 "/></g></g></g><g fill="#000000" fill-opacity="1"><g transform="translate(204.843536, 204.866454)"><g><path d="M 9.265625 -0.328125 C 8.453125 -0.484375 7.546875 -0.660156 6.546875 -0.859375 C 5.546875 -1.066406 4.601562 -1.375 3.71875 -1.78125 C 2.832031 -2.1875 2.128906 -2.757812 1.609375 -3.5 C 0.910156 -4.53125 0.648438 -5.472656 0.828125 -6.328125 C 1.015625 -7.179688 1.503906 -7.863281 2.296875 -8.375 C 3.097656 -8.894531 4.035156 -9.140625 5.109375 -9.109375 C 5.773438 -9.109375 6.515625 -8.957031 7.328125 -8.65625 C 8.140625 -8.363281 8.960938 -8.085938 9.796875 -7.828125 C 10.628906 -7.566406 11.414062 -7.5 12.15625 -7.625 C 12.894531 -7.757812 13.523438 -8.269531 14.046875 -9.15625 C 14.640625 -10.125 14.722656 -10.984375 14.296875 -11.734375 C 13.867188 -12.492188 13.238281 -13.140625 12.40625 -13.671875 C 11.570312 -14.210938 10.804688 -14.648438 10.109375 -14.984375 C 7.296875 -16.359375 5.226562 -18.179688 3.90625 -20.453125 C 2.59375 -22.734375 2.160156 -25.460938 2.609375 -28.640625 C 3.054688 -31.828125 4.332031 -34.578125 6.4375 -36.890625 C 8.550781 -39.203125 11.125 -40.785156 14.15625 -41.640625 C 15.632812 -42.078125 17.253906 -42.3125 19.015625 -42.34375 C 20.773438 -42.382812 22.335938 -41.984375 23.703125 -41.140625 C 24.484375 -40.660156 25.078125 -40.003906 25.484375 -39.171875 C 25.890625 -38.335938 25.988281 -37.519531 25.78125 -36.71875 C 25.582031 -35.925781 24.910156 -35.34375 23.765625 -34.96875 C 22.578125 -34.601562 21.378906 -34.097656 20.171875 -33.453125 C 18.972656 -32.804688 17.910156 -32.054688 16.984375 -31.203125 C 16.054688 -30.347656 15.390625 -29.410156 14.984375 -28.390625 C 14.578125 -27.378906 14.539062 -26.316406 14.875 -25.203125 C 15.207031 -24.085938 16.0625 -22.957031 17.4375 -21.8125 C 18.28125 -21.070312 19.144531 -20.394531 20.03125 -19.78125 C 20.925781 -19.175781 21.757812 -18.507812 22.53125 -17.78125 C 23.3125 -17.0625 23.941406 -16.148438 24.421875 -15.046875 C 25.054688 -13.671875 25.398438 -12.175781 25.453125 -10.5625 C 25.503906 -8.957031 25.238281 -7.453125 24.65625 -6.046875 C 24.019531 -4.535156 23.128906 -3.332031 21.984375 -2.4375 C 20.835938 -1.550781 19.550781 -0.921875 18.125 -0.546875 C 16.695312 -0.179688 15.222656 0 13.703125 0 C 12.191406 0 10.710938 -0.109375 9.265625 -0.328125 Z M 9.265625 -0.328125 "/></g></g></g><g fill="#000000" fill-opacity="1"><g transform="translate(235.544102, 204.866454)"><g><path d="M 7.4375 -2.5 C 5.695312 -2.789062 4.316406 -3.472656 3.296875 -4.546875 C 2.285156 -5.617188 1.59375 -6.914062 1.21875 -8.4375 C 0.851562 -9.957031 0.753906 -11.546875 0.921875 -13.203125 C 1.085938 -14.867188 1.484375 -16.453125 2.109375 -17.953125 C 2.734375 -19.453125 3.53125 -20.722656 4.5 -21.765625 C 5.71875 -23.054688 7.257812 -24.015625 9.125 -24.640625 C 11 -25.273438 12.820312 -25.332031 14.59375 -24.8125 C 15.519531 -24.550781 16.367188 -24.078125 17.140625 -23.390625 C 17.921875 -22.710938 18.535156 -21.925781 18.984375 -21.03125 C 19.429688 -20.144531 19.617188 -19.226562 19.546875 -18.28125 C 19.472656 -17.34375 19.0625 -16.445312 18.3125 -15.59375 C 17.613281 -14.820312 16.742188 -14.25 15.703125 -13.875 C 14.671875 -13.507812 13.65625 -13.234375 12.65625 -13.046875 C 11.988281 -12.929688 11.300781 -12.851562 10.59375 -12.8125 C 9.894531 -12.78125 9.296875 -12.609375 8.796875 -12.296875 C 8.296875 -11.984375 8.007812 -11.34375 7.9375 -10.375 C 7.863281 -9.375 8.019531 -8.765625 8.40625 -8.546875 C 8.800781 -8.328125 9.300781 -8.351562 9.90625 -8.625 C 10.519531 -8.90625 11.160156 -9.285156 11.828125 -9.765625 C 12.492188 -10.253906 13.101562 -10.71875 13.65625 -11.15625 C 14.207031 -11.601562 14.597656 -11.878906 14.828125 -11.984375 C 16.003906 -12.503906 16.851562 -12.539062 17.375 -12.09375 C 17.894531 -11.65625 18.171875 -10.984375 18.203125 -10.078125 C 18.242188 -9.171875 18.109375 -8.253906 17.796875 -7.328125 C 17.484375 -6.398438 17.082031 -5.695312 16.59375 -5.21875 C 15.445312 -4.070312 14.03125 -3.265625 12.34375 -2.796875 C 10.664062 -2.335938 9.03125 -2.238281 7.4375 -2.5 Z M 11.109375 -16.546875 C 11.472656 -16.429688 11.953125 -16.4375 12.546875 -16.5625 C 13.140625 -16.695312 13.640625 -16.921875 14.046875 -17.234375 C 14.453125 -17.546875 14.5625 -17.890625 14.375 -18.265625 C 13.675781 -18.378906 13.03125 -18.285156 12.4375 -17.984375 C 11.84375 -17.691406 11.398438 -17.210938 11.109375 -16.546875 Z M 11.109375 -16.546875 "/></g></g></g><g fill="#000000" fill-opacity="1"><g transform="translate(259.915983, 204.866454)"><g><path d="M 3.109375 -1.9375 C 2.253906 -3.414062 1.648438 -5.070312 1.296875 -6.90625 C 0.953125 -8.738281 0.796875 -10.632812 0.828125 -12.59375 C 0.867188 -14.5625 1.007812 -16.488281 1.25 -18.375 C 1.488281 -20.257812 1.773438 -22.019531 2.109375 -23.65625 C 2.222656 -24.238281 2.378906 -24.925781 2.578125 -25.71875 C 2.785156 -26.519531 3.070312 -27.269531 3.4375 -27.96875 C 3.8125 -28.675781 4.3125 -29.160156 4.9375 -29.421875 C 5.71875 -29.753906 6.40625 -29.753906 7 -29.421875 C 7.59375 -29.085938 8.09375 -28.566406 8.5 -27.859375 C 8.90625 -27.160156 9.226562 -26.429688 9.46875 -25.671875 C 9.707031 -24.910156 9.882812 -24.253906 10 -23.703125 C 10.582031 -24.703125 11.28125 -25.632812 12.09375 -26.5 C 12.914062 -27.375 13.851562 -28.03125 14.90625 -28.46875 C 15.957031 -28.914062 17.09375 -28.992188 18.3125 -28.703125 C 19.394531 -28.441406 20.378906 -27.90625 21.265625 -27.09375 C 22.148438 -26.28125 22.890625 -25.34375 23.484375 -24.28125 C 24.078125 -23.226562 24.425781 -22.164062 24.53125 -21.09375 C 24.613281 -20.238281 24.457031 -19.457031 24.0625 -18.75 C 23.675781 -18.050781 23.019531 -17.664062 22.09375 -17.59375 C 21.238281 -17.5625 20.570312 -17.8125 20.09375 -18.34375 C 19.613281 -18.882812 19.0625 -19.375 18.4375 -19.8125 C 17.46875 -20.550781 16.578125 -20.828125 15.765625 -20.640625 C 14.953125 -20.460938 14.222656 -20.03125 13.578125 -19.34375 C 12.929688 -18.65625 12.347656 -17.867188 11.828125 -16.984375 C 11.265625 -16.054688 10.769531 -15.09375 10.34375 -14.09375 C 9.925781 -13.101562 9.625 -12.066406 9.4375 -10.984375 C 9.21875 -9.804688 9.066406 -8.613281 8.984375 -7.40625 C 8.910156 -6.207031 8.785156 -5.015625 8.609375 -3.828125 C 8.421875 -2.722656 8.03125 -1.789062 7.4375 -1.03125 C 6.84375 -0.269531 6.15625 0.078125 5.375 0.015625 C 4.601562 -0.0351562 3.847656 -0.6875 3.109375 -1.9375 Z M 3.109375 -1.9375 "/></g></g></g><g fill="#000000" fill-opacity="1"><g transform="translate(289.006623, 204.866454)"><g><path d="M 8.875 -0.21875 C 7.882812 -0.550781 7.070312 -1.171875 6.4375 -2.078125 C 5.8125 -2.984375 5.320312 -3.972656 4.96875 -5.046875 C 4.613281 -6.117188 4.289062 -7.117188 4 -8.046875 C 3.769531 -8.828125 3.425781 -9.945312 2.96875 -11.40625 C 2.507812 -12.863281 2.078125 -14.472656 1.671875 -16.234375 C 1.265625 -17.992188 0.992188 -19.710938 0.859375 -21.390625 C 0.734375 -23.078125 0.863281 -24.550781 1.25 -25.8125 C 1.632812 -27.070312 2.398438 -27.925781 3.546875 -28.375 C 4.617188 -28.78125 5.570312 -28.613281 6.40625 -27.875 C 7.238281 -27.132812 7.960938 -26.078125 8.578125 -24.703125 C 9.191406 -23.335938 9.707031 -21.867188 10.125 -20.296875 C 10.550781 -18.722656 10.90625 -17.269531 11.1875 -15.9375 C 11.46875 -14.601562 11.679688 -13.640625 11.828125 -13.046875 C 11.859375 -13.265625 11.921875 -13.804688 12.015625 -14.671875 C 12.109375 -15.546875 12.265625 -16.578125 12.484375 -17.765625 C 12.710938 -18.953125 12.984375 -20.144531 13.296875 -21.34375 C 13.609375 -22.550781 13.992188 -23.585938 14.453125 -24.453125 C 14.921875 -25.328125 15.46875 -25.875 16.09375 -26.09375 C 16.726562 -26.3125 17.429688 -26.050781 18.203125 -25.3125 C 18.691406 -24.875 18.972656 -24.226562 19.046875 -23.375 C 19.117188 -22.519531 19.078125 -21.601562 18.921875 -20.625 C 18.773438 -19.644531 18.59375 -18.71875 18.375 -17.84375 C 18.15625 -16.976562 17.988281 -16.265625 17.875 -15.703125 C 17.46875 -13.890625 16.992188 -12.054688 16.453125 -10.203125 C 15.921875 -8.359375 15.320312 -6.550781 14.65625 -4.78125 C 14.363281 -3.957031 13.96875 -3.128906 13.46875 -2.296875 C 12.96875 -1.472656 12.347656 -0.835938 11.609375 -0.390625 C 10.867188 0.0546875 9.957031 0.113281 8.875 -0.21875 Z M 8.875 -0.21875 "/></g></g></g><g fill="#000000" fill-opacity="1"><g transform="translate(312.934387, 204.866454)"><g><path d="M 7.4375 -2.5 C 5.695312 -2.789062 4.316406 -3.472656 3.296875 -4.546875 C 2.285156 -5.617188 1.59375 -6.914062 1.21875 -8.4375 C 0.851562 -9.957031 0.753906 -11.546875 0.921875 -13.203125 C 1.085938 -14.867188 1.484375 -16.453125 2.109375 -17.953125 C 2.734375 -19.453125 3.53125 -20.722656 4.5 -21.765625 C 5.71875 -23.054688 7.257812 -24.015625 9.125 -24.640625 C 11 -25.273438 12.820312 -25.332031 14.59375 -24.8125 C 15.519531 -24.550781 16.367188 -24.078125 17.140625 -23.390625 C 17.921875 -22.710938 18.535156 -21.925781 18.984375 -21.03125 C 19.429688 -20.144531 19.617188 -19.226562 19.546875 -18.28125 C 19.472656 -17.34375 19.0625 -16.445312 18.3125 -15.59375 C 17.613281 -14.820312 16.742188 -14.25 15.703125 -13.875 C 14.671875 -13.507812 13.65625 -13.234375 12.65625 -13.046875 C 11.988281 -12.929688 11.300781 -12.851562 10.59375 -12.8125 C 9.894531 -12.78125 9.296875 -12.609375 8.796875 -12.296875 C 8.296875 -11.984375 8.007812 -11.34375 7.9375 -10.375 C 7.863281 -9.375 8.019531 -8.765625 8.40625 -8.546875 C 8.800781 -8.328125 9.300781 -8.351562 9.90625 -8.625 C 10.519531 -8.90625 11.160156 -9.285156 11.828125 -9.765625 C 12.492188 -10.253906 13.101562 -10.71875 13.65625 -11.15625 C 14.207031 -11.601562 14.597656 -11.878906 14.828125 -11.984375 C 16.003906 -12.503906 16.851562 -12.539062 17.375 -12.09375 C 17.894531 -11.65625 18.171875 -10.984375 18.203125 -10.078125 C 18.242188 -9.171875 18.109375 -8.253906 17.796875 -7.328125 C 17.484375 -6.398438 17.082031 -5.695312 16.59375 -5.21875 C 15.445312 -4.070312 14.03125 -3.265625 12.34375 -2.796875 C 10.664062 -2.335938 9.03125 -2.238281 7.4375 -2.5 Z M 11.109375 -16.546875 C 11.472656 -16.429688 11.953125 -16.4375 12.546875 -16.5625 C 13.140625 -16.695312 13.640625 -16.921875 14.046875 -17.234375 C 14.453125 -17.546875 14.5625 -17.890625 14.375 -18.265625 C 13.675781 -18.378906 13.03125 -18.285156 12.4375 -17.984375 C 11.84375 -17.691406 11.398438 -17.210938 11.109375 -16.546875 Z M 11.109375 -16.546875 "/></g></g></g><g clip-path="url(#60aa8cfdc3)"><g clip-path="url(#179d53a143)"><path fill="#000000" d="M 317.390625 216.46875 L 317.390625 220.21875 L 57.601562 220.21875 L 57.601562 216.46875 Z M 317.390625 216.46875 " fill-opacity="1" fill-rule="nonzero"/></g></g></svg>